<svg id="e6d82e8c-256c-4c01-8508-75e1e1376037" data-name="Layer 1" xmlns="http://www.w3.org/2000/svg" viewBox="0 0 1295.79 407.32"><title>Laz Gid</title><path d="M520.7,1658.66H502v12.25h16.3v2.38H502v15.61h-2.39v-32.62H520.7Z" transform="translate(-267.99 -1282.18)" style="fill:#fff"/><path d="M541.62,1655.68a15.85,15.85,0,0,1,6.17,1.19,14,14,0,0,1,4.87,3.4,15.89,15.89,0,0,1,3.19,5.3,21.63,21.63,0,0,1,0,13.83,16,16,0,0,1-3.17,5.38,14.08,14.08,0,0,1-4.86,3.48,16.22,16.22,0,0,1-12.44,0,14.13,14.13,0,0,1-4.87-3.47,16,16,0,0,1-3.18-5.36,20.41,20.41,0,0,1-1.13-6.94,19.79,19.79,0,0,1,1.15-7,15.45,15.45,0,0,1,3.2-5.29,14.26,14.26,0,0,1,4.88-3.38A15.72,15.72,0,0,1,541.62,1655.68Zm0,31.44a13.63,13.63,0,0,0,5.17-1,11.36,11.36,0,0,0,4.09-2.85,13,13,0,0,0,2.69-4.6,18.93,18.93,0,0,0,1-6.21,18.1,18.1,0,0,0-1-6.2,13,13,0,0,0-2.68-4.52,11.22,11.22,0,0,0-4.05-2.77,14.46,14.46,0,0,0-10.31,0,11.35,11.35,0,0,0-4.1,2.78,13,13,0,0,0-2.7,4.52,18.25,18.25,0,0,0-1,6.17,18.67,18.67,0,0,0,.95,6.21,12.94,12.94,0,0,0,2.67,4.6,11.24,11.24,0,0,0,4.08,2.85A13.63,13.63,0,0,0,541.59,1687.12Z" transform="translate(-267.99 -1282.18)" style="fill:#fff"/><path d="M590,1688.9h-2.62l-3.25-8.67a21.13,21.13,0,0,0-1.06-2.35,8.36,8.36,0,0,0-1.36-1.92,5.79,5.79,0,0,0-1.77-1.3,5.31,5.31,0,0,0-2.34-.48H566.23v14.72h-2.38v-32.62h14.69a20.64,20.64,0,0,1,4,.37,9.89,9.89,0,0,1,3.43,1.32,7,7,0,0,1,2.4,2.64,9.1,9.1,0,0,1,.89,4.31,11,11,0,0,1-.4,3,7.72,7.72,0,0,1-1.22,2.53,7.25,7.25,0,0,1-2.09,1.91,9,9,0,0,1-3,1.15,12.55,12.55,0,0,1,1.52,1.37,8.13,8.13,0,0,1,1,1.4,12.47,12.47,0,0,1,.77,1.64l.79,2Zm-23.81-17.1h11.32a20.74,20.74,0,0,0,4.15-.36,7.16,7.16,0,0,0,2.84-1.17,4.82,4.82,0,0,0,1.65-2.13,8.5,8.5,0,0,0,.54-3.22q0-3.37-2.13-4.81t-6.36-1.45h-12Z" transform="translate(-267.99 -1282.18)" style="fill:#fff"/><path d="M627.67,1688.9h-2.38v-28.72l-11.74,28.72h-2.5l-11.71-28.72v28.72H597v-32.62h3.46l11.89,29.64,12-29.64h3.39Z" transform="translate(-267.99 -1282.18)" style="fill:#fff"/><path d="M661.73,1688.9h-2.86l-4-10.48H638.82c-.58,1.64-1.2,3.39-1.88,5.23s-1.32,3.59-1.94,5.25h-2.53q1.6-4.23,3.17-8.28c1.05-2.7,2.08-5.39,3.12-8.06l3.11-8.06q1.56-4.05,3.17-8.25h3.37Zm-7.54-12.36-7.57-18.15-7.18,18.15Z" transform="translate(-267.99 -1282.18)" style="fill:#fff"/><path d="M686.14,1688.9H666.92v-32.62h2.38v30.24h16.84Z" transform="translate(-267.99 -1282.18)" style="fill:#fff"/><path d="M724.6,1688.9h-4.35v-4.35h4.35Z" transform="translate(-267.99 -1282.18)" style="fill:#fff"/><path d="M772.76,1689.5a21.13,21.13,0,0,1-5.78-.7,12.12,12.12,0,0,1-4.16-2,8.73,8.73,0,0,1-2.58-3.13,11,11,0,0,1-1-4.12h2.35a9.16,9.16,0,0,0,1.34,3.66,7.7,7.7,0,0,0,2.43,2.33,10.33,10.33,0,0,0,3.29,1.22,20.69,20.69,0,0,0,3.94.36,15.26,15.26,0,0,0,3.92-.47,9,9,0,0,0,3-1.34,6.12,6.12,0,0,0,1.89-2.11,6,6,0,0,0,.65-2.79,6.12,6.12,0,0,0-.56-2.75,5.09,5.09,0,0,0-1.91-2,15.08,15.08,0,0,0-3.53-1.49q-2.19-.64-5.44-1.34a28.33,28.33,0,0,1-4.6-1.37,12.23,12.23,0,0,1-3.18-1.8,6.49,6.49,0,0,1-1.84-2.35,8.05,8.05,0,0,1,.21-6.57,7.8,7.8,0,0,1,2.28-2.72,10.86,10.86,0,0,1,3.54-1.75,15.7,15.7,0,0,1,4.58-.63,16.94,16.94,0,0,1,4.58.58,11.9,11.9,0,0,1,3.65,1.68,9,9,0,0,1,2.54,2.69,9.13,9.13,0,0,1,1.23,3.57h-2.29a8.06,8.06,0,0,0-1.07-2.44,7,7,0,0,0-1.93-2,8.92,8.92,0,0,0-2.8-1.28,13.48,13.48,0,0,0-3.71-.47q-4.38,0-6.63,1.61a5.15,5.15,0,0,0-2.25,4.41,5.53,5.53,0,0,0,.42,2.24,4.43,4.43,0,0,0,1.42,1.71,9.6,9.6,0,0,0,2.63,1.34,32.1,32.1,0,0,0,4.09,1.09l3,.62c1,.22,2,.48,3,.78a19.59,19.59,0,0,1,2.76,1.1,9.25,9.25,0,0,1,2.28,1.61,7.48,7.48,0,0,1,1.55,2.28,7.94,7.94,0,0,1,.58,3.15,8.42,8.42,0,0,1-.88,3.82,9,9,0,0,1-2.45,3,11.38,11.38,0,0,1-3.72,2A15.07,15.07,0,0,1,772.76,1689.5Z" transform="translate(-267.99 -1282.18)" style="fill:#fff"/><path d="M791.68,1656.28h11.86a27.34,27.34,0,0,1,4.59.38,10.94,10.94,0,0,1,3.88,1.42,7.51,7.51,0,0,1,2.69,2.79,9,9,0,0,1,1,4.46c0,3.2-1,5.64-3,7.3s-5,2.51-8.83,2.51h-9.78v13.76h-2.38Zm2.38,16.47h9.86a16.52,16.52,0,0,0,4.27-.47,7.62,7.62,0,0,0,2.87-1.4,5.37,5.37,0,0,0,1.63-2.28,9.17,9.17,0,0,0,.5-3.15,7,7,0,0,0-.76-3.51,5.23,5.23,0,0,0-2-2.07,8.47,8.47,0,0,0-3-1,25.47,25.47,0,0,0-3.57-.24h-9.75Z" transform="translate(-267.99 -1282.18)" style="fill:#fff"/><path d="M836.37,1655.68a15.82,15.82,0,0,1,6.17,1.19,14,14,0,0,1,4.87,3.4,15.73,15.73,0,0,1,3.19,5.3,19.7,19.7,0,0,1,1.15,6.92,20.32,20.32,0,0,1-1.13,6.91,16.18,16.18,0,0,1-3.18,5.38,14.14,14.14,0,0,1-4.85,3.48,16.22,16.22,0,0,1-12.44,0,14.26,14.26,0,0,1-4.88-3.47,16,16,0,0,1-3.17-5.36,20.41,20.41,0,0,1-1.13-6.94,19.79,19.79,0,0,1,1.15-7,15.45,15.45,0,0,1,3.2-5.29,14.22,14.22,0,0,1,4.87-3.38A15.8,15.8,0,0,1,836.37,1655.68Zm0,31.44a13.6,13.6,0,0,0,5.17-1,11.4,11.4,0,0,0,4.1-2.85,13,13,0,0,0,2.68-4.6,18.66,18.66,0,0,0,1-6.21,18.34,18.34,0,0,0-1-6.2,13.14,13.14,0,0,0-2.68-4.52,11.34,11.34,0,0,0-4.06-2.77,14.46,14.46,0,0,0-10.31,0,11.31,11.31,0,0,0-4.09,2.78,12.87,12.87,0,0,0-2.7,4.52,18,18,0,0,0-1,6.17,18.66,18.66,0,0,0,1,6.21,13.07,13.07,0,0,0,2.66,4.6,11.32,11.32,0,0,0,4.08,2.85A13.67,13.67,0,0,0,836.34,1687.12Z" transform="translate(-267.99 -1282.18)" style="fill:#fff"/><path d="M884.8,1688.9h-2.63l-3.24-8.67a23.13,23.13,0,0,0-1.06-2.35,8.36,8.36,0,0,0-1.36-1.92,6,6,0,0,0-1.77-1.3,5.37,5.37,0,0,0-2.34-.48H861v14.72H858.6v-32.62h14.69a20.75,20.75,0,0,1,4,.37,10,10,0,0,1,3.43,1.32,7,7,0,0,1,2.4,2.64,9.22,9.22,0,0,1,.89,4.31,11,11,0,0,1-.4,3,7.92,7.92,0,0,1-1.22,2.53,7.25,7.25,0,0,1-2.09,1.91,9,9,0,0,1-3,1.15,12.55,12.55,0,0,1,1.52,1.37,8.07,8.07,0,0,1,1,1.4,11.33,11.33,0,0,1,.78,1.64l.79,2ZM861,1671.8h11.32a20.56,20.56,0,0,0,4.14-.36,7.27,7.27,0,0,0,2.85-1.17,5,5,0,0,0,1.65-2.13,8.5,8.5,0,0,0,.54-3.22q0-3.37-2.13-4.81t-6.36-1.45H861Z" transform="translate(-267.99 -1282.18)" style="fill:#fff"/><path d="M914.5,1658.66H903.09v30.24h-2.38v-30.24h-11.3v-2.38H914.5Z" transform="translate(-267.99 -1282.18)" style="fill:#fff"/><path d="M958.87,1656.28l-8.49,32.62H946.8l-8.94-29.49-8.64,29.49h-3.57l-8.44-32.62h2.54l7.69,29.5,8.64-29.5h3.57l8.94,29.5,7.75-29.5Z" transform="translate(-267.99 -1282.18)" style="fill:#fff"/><path d="M987.69,1688.9H964.12v-32.62h22.76v2.38H966.5v12.07h19.1v2.38H966.5v13.41h21.19Z" transform="translate(-267.99 -1282.18)" style="fill:#fff"/><path d="M1020.79,1688.9h-2.86l-4-10.48H997.88c-.58,1.64-1.21,3.39-1.88,5.23s-1.32,3.59-1.94,5.25h-2.53q1.61-4.23,3.17-8.28c1-2.7,2.08-5.39,3.12-8.06l3.11-8.06q1.56-4.05,3.17-8.25h3.37Zm-7.54-12.36-7.57-18.15-7.18,18.15Z" transform="translate(-267.99 -1282.18)" style="fill:#fff"/><path d="M1052.05,1688.9h-2.62l-3.25-8.67a21.13,21.13,0,0,0-1.06-2.35,8.36,8.36,0,0,0-1.36-1.92,5.79,5.79,0,0,0-1.77-1.3,5.31,5.31,0,0,0-2.34-.48h-11.41v14.72h-2.38v-32.62h14.69a20.64,20.64,0,0,1,4,.37A9.89,9.89,0,0,1,1048,1658a7,7,0,0,1,2.4,2.64,9.1,9.1,0,0,1,.89,4.31,11,11,0,0,1-.4,3,7.72,7.72,0,0,1-1.22,2.53,7.25,7.25,0,0,1-2.09,1.91,9,9,0,0,1-3,1.15,12.55,12.55,0,0,1,1.52,1.37,8.13,8.13,0,0,1,1,1.4,12.47,12.47,0,0,1,.77,1.64l.79,2Zm-23.81-17.1h11.32a20.74,20.74,0,0,0,4.15-.36,7.16,7.16,0,0,0,2.84-1.17,4.82,4.82,0,0,0,1.65-2.13,8.5,8.5,0,0,0,.54-3.22q0-3.37-2.13-4.81t-6.36-1.45h-12Z" transform="translate(-267.99 -1282.18)" style="fill:#fff"/><path d="M1071.3,1689.5a21.18,21.18,0,0,1-5.78-.7,12.12,12.12,0,0,1-4.16-2,8.73,8.73,0,0,1-2.58-3.13,11,11,0,0,1-1-4.12h2.35a9.16,9.16,0,0,0,1.34,3.66,7.7,7.7,0,0,0,2.43,2.33,10.3,10.3,0,0,0,3.3,1.22,20.51,20.51,0,0,0,3.93.36,15.26,15.26,0,0,0,3.92-.47,9,9,0,0,0,3-1.34,6.12,6.12,0,0,0,1.89-2.11,5.83,5.83,0,0,0,.65-2.79,6,6,0,0,0-.56-2.75,5,5,0,0,0-1.91-2,15.08,15.08,0,0,0-3.53-1.49q-2.19-.64-5.44-1.34a28.33,28.33,0,0,1-4.6-1.37,12,12,0,0,1-3.17-1.8,6.52,6.52,0,0,1-1.85-2.35,8.05,8.05,0,0,1,.21-6.57,7.8,7.8,0,0,1,2.28-2.72,10.86,10.86,0,0,1,3.54-1.75,15.7,15.7,0,0,1,4.58-.63,16.94,16.94,0,0,1,4.58.58,11.9,11.9,0,0,1,3.65,1.68,8.86,8.86,0,0,1,3.77,6.26h-2.29a8.06,8.06,0,0,0-1.07-2.44,7,7,0,0,0-1.93-2,8.92,8.92,0,0,0-2.8-1.28,13.48,13.48,0,0,0-3.71-.47q-4.38,0-6.63,1.61a5.15,5.15,0,0,0-2.25,4.41,5.53,5.53,0,0,0,.42,2.24,4.43,4.43,0,0,0,1.42,1.71,9.6,9.6,0,0,0,2.63,1.34,32.1,32.1,0,0,0,4.09,1.09l3,.62c1,.22,2,.48,3,.78a19.59,19.59,0,0,1,2.76,1.1,9.25,9.25,0,0,1,2.28,1.61,7.48,7.48,0,0,1,1.55,2.28,7.94,7.94,0,0,1,.58,3.15,8.42,8.42,0,0,1-.88,3.82,9,9,0,0,1-2.45,3,11.38,11.38,0,0,1-3.72,2A15,15,0,0,1,1071.3,1689.5Z" transform="translate(-267.99 -1282.18)" style="fill:#fff"/><path d="M1122.22,1688.9h-4.35v-4.35h4.35Z" transform="translate(-267.99 -1282.18)" style="fill:#fff"/><path d="M1182.08,1665a7.29,7.29,0,0,0-1.22-2.73,9,9,0,0,0-2.23-2.2,10.92,10.92,0,0,0-3.09-1.48,12.52,12.52,0,0,0-3.74-.54,13.58,13.58,0,0,0-5.13.93,10.37,10.37,0,0,0-3.94,2.72,12.41,12.41,0,0,0-2.5,4.5,20.18,20.18,0,0,0-.88,6.28,20.44,20.44,0,0,0,.88,6.3,12.65,12.65,0,0,0,2.5,4.57,10.55,10.55,0,0,0,3.9,2.8,13,13,0,0,0,5.08,1,12,12,0,0,0,7-1.9,8.1,8.1,0,0,0,3.39-5.52h2.48a11.38,11.38,0,0,1-1.46,4.15,10.81,10.81,0,0,1-2.77,3.09,12.26,12.26,0,0,1-3.85,1.9,16.15,16.15,0,0,1-4.71.66,15.26,15.26,0,0,1-6.21-1.21,13.11,13.11,0,0,1-4.69-3.41,15.19,15.19,0,0,1-3-5.35,22.11,22.11,0,0,1-1-7,21.69,21.69,0,0,1,1-7,15,15,0,0,1,3-5.29,13,13,0,0,1,4.71-3.36,15.51,15.51,0,0,1,6.18-1.18,14.49,14.49,0,0,1,4.49.69,13.11,13.11,0,0,1,3.83,1.92,12,12,0,0,1,2.86,3,10.82,10.82,0,0,1,1.61,3.77Z" transform="translate(-267.99 -1282.18)" style="fill:#fff"/><path d="M1217.63,1688.9h-2.86l-4-10.48h-16.06c-.58,1.64-1.2,3.39-1.88,5.23s-1.32,3.59-1.94,5.25h-2.53q1.61-4.23,3.17-8.28t3.12-8.06l3.11-8.06c1-2.7,2.1-5.45,3.18-8.25h3.36Zm-7.54-12.36-7.56-18.15-7.19,18.15Z" transform="translate(-267.99 -1282.18)" style="fill:#fff"/><path d="M1234.71,1689.5a21.13,21.13,0,0,1-5.78-.7,12.12,12.12,0,0,1-4.16-2,8.73,8.73,0,0,1-2.58-3.13,11,11,0,0,1-1-4.12h2.35a9.16,9.16,0,0,0,1.34,3.66,7.7,7.7,0,0,0,2.43,2.33,10.33,10.33,0,0,0,3.29,1.22,20.69,20.69,0,0,0,3.94.36,15.26,15.26,0,0,0,3.92-.47,9,9,0,0,0,3-1.34,6.12,6.12,0,0,0,1.89-2.11,6,6,0,0,0,.65-2.79,6.12,6.12,0,0,0-.56-2.75,5.09,5.09,0,0,0-1.91-2,15.08,15.08,0,0,0-3.53-1.49q-2.19-.64-5.44-1.34a28.33,28.33,0,0,1-4.6-1.37,12.23,12.23,0,0,1-3.18-1.8,6.49,6.49,0,0,1-1.84-2.35,7.47,7.47,0,0,1-.6-3.09,7.61,7.61,0,0,1,.8-3.48,7.94,7.94,0,0,1,2.29-2.72,10.86,10.86,0,0,1,3.54-1.75,15.68,15.68,0,0,1,4.57-.63,17,17,0,0,1,4.59.58,11.9,11.9,0,0,1,3.65,1.68,9,9,0,0,1,2.54,2.69,9.13,9.13,0,0,1,1.23,3.57h-2.29a8.06,8.06,0,0,0-1.07-2.44,7,7,0,0,0-1.93-2,8.92,8.92,0,0,0-2.8-1.28,13.48,13.48,0,0,0-3.71-.47q-4.38,0-6.63,1.61a5.15,5.15,0,0,0-2.25,4.41,5.53,5.53,0,0,0,.42,2.24,4.43,4.43,0,0,0,1.42,1.71,9.6,9.6,0,0,0,2.63,1.34,32.1,32.1,0,0,0,4.09,1.09l3,.62c1,.22,2,.48,3,.78a19.59,19.59,0,0,1,2.76,1.1,9.25,9.25,0,0,1,2.28,1.61,7.48,7.48,0,0,1,1.55,2.28,7.94,7.94,0,0,1,.58,3.15,8.42,8.42,0,0,1-.88,3.82,9,9,0,0,1-2.45,3,11.38,11.38,0,0,1-3.72,2A15.07,15.07,0,0,1,1234.71,1689.5Z" transform="translate(-267.99 -1282.18)" style="fill:#fff"/><path d="M1266.08,1689.5a17.73,17.73,0,0,1-5-.61,10.7,10.7,0,0,1-3.44-1.65,8.13,8.13,0,0,1-2.17-2.45,12,12,0,0,1-1.23-3,17.43,17.43,0,0,1-.52-3.27c-.07-1.14-.1-2.24-.1-3.31v-19H1256v18.86a22.85,22.85,0,0,0,.67,6.06,8.41,8.41,0,0,0,2,3.65,6.64,6.64,0,0,0,3.16,1.79,17.14,17.14,0,0,0,4.27.48,17.73,17.73,0,0,0,4.34-.48,6.52,6.52,0,0,0,3.16-1.8,8.65,8.65,0,0,0,1.92-3.65,22.77,22.77,0,0,0,.66-6v-18.86h2.38v19a28.84,28.84,0,0,1-.57,6,11.18,11.18,0,0,1-2,4.48,8.81,8.81,0,0,1-3.82,2.8A16.44,16.44,0,0,1,1266.08,1689.5Z" transform="translate(-267.99 -1282.18)" style="fill:#fff"/><path d="M1312.87,1688.9H1310l-4-10.48H1290c-.57,1.64-1.2,3.39-1.88,5.23l-1.93,5.25h-2.54c1.08-2.82,2.13-5.58,3.18-8.28l3.11-8.06q1.54-4,3.12-8.06t3.17-8.25h3.37Zm-7.54-12.36-7.57-18.15-7.18,18.15Z" transform="translate(-267.99 -1282.18)" style="fill:#fff"/><path d="M1337.27,1688.9h-19.22v-32.62h2.38v30.24h16.84Z" transform="translate(-267.99 -1282.18)" style="fill:#fff"/><path d="M268,1358.24a67.13,67.13,0,0,1,5.51-27,69.58,69.58,0,0,1,37-36.93,70.58,70.58,0,0,1,47.63-2.53,66.56,66.56,0,0,1,17.86,8.48,75.5,75.5,0,0,1,14.66,13,72,72,0,0,1,10.69,16.32L389,1337.52a58.69,58.69,0,0,0-8.49-13.45,61.19,61.19,0,0,0-11.8-10.81,54.25,54.25,0,0,0-14.44-7.16,52.9,52.9,0,0,0-37.59,2,58.17,58.17,0,0,0-17.64,12,56.91,56.91,0,0,0-11.91,17.53,51.24,51.24,0,0,0-4.41,20.83,50.26,50.26,0,0,0,4.41,20.84,57.74,57.74,0,0,0,11.91,17.31,56.77,56.77,0,0,0,17.53,11.9,52.09,52.09,0,0,0,21.27,4.41,53.81,53.81,0,0,0,15-2.09,57,57,0,0,0,13.56-5.85,57.9,57.9,0,0,0,11.46-8.93,51.44,51.44,0,0,0,8.71-11.57l10.58,10.8a70.94,70.94,0,0,1-24.58,23.48q-15.33,8.94-34.73,8.93a68.26,68.26,0,0,1-27.34-5.51,69.58,69.58,0,0,1-37-36.93A67.06,67.06,0,0,1,268,1358.24Zm128.54-3.08v13.89H330.61v-13.89Z" transform="translate(-267.99 -1282.18)" style="fill:#bf8600"/><path d="M494.21,1355.16h21.16a16.26,16.26,0,0,0,9-2.43,21.87,21.87,0,0,0,6.29-6.17,25.62,25.62,0,0,0,3.64-8.16,34.8,34.8,0,0,0,1.1-8.38,31.43,31.43,0,0,0-1.44-9.15,30.83,30.83,0,0,0-4.07-8.6,23.56,23.56,0,0,0-6.51-6.39,15.52,15.52,0,0,0-8.71-2.54H445.92V1427H430.49V1289.45h87.09a28,28,0,0,1,13,3.2,35.92,35.92,0,0,1,10.8,8.6,41.67,41.67,0,0,1,7.39,12.9,46.4,46.4,0,0,1,2.75,16.09,40.88,40.88,0,0,1-2.64,14.66,43.06,43.06,0,0,1-7.17,12.35,34.94,34.94,0,0,1-10.58,8.6,27.33,27.33,0,0,1-12.9,3.2l29.32,58H531Z" transform="translate(-267.99 -1282.18)" style="fill:#bf8600"/><path d="M580.64,1427V1289.45H685.37v13.89h-89.3v109.8h89.3V1427Zm103-71.87v13.89H617.68v-13.89Z" transform="translate(-267.99 -1282.18)" style="fill:#bf8600"/><path d="M854.92,1427h-17.2l-55.56-111.78-47.85,97.89h64.82l9.49,13.89H710.06l72.1-144.85Z" transform="translate(-267.99 -1282.18)" style="fill:#bf8600"/><path d="M966,1289.45v13.89H913.57V1427H898.13V1303.34H845.88v-13.89Z" transform="translate(-267.99 -1282.18)" style="fill:#bf8600"/><path d="M1074.29,1427V1289.45h15.44v123.69H1179V1427Z" transform="translate(-267.99 -1282.18)" style="fill:#bf8600"/><path d="M1347.91,1427h-17.19l-55.57-111.78-47.84,97.89h64.82l9.48,13.89h-98.55l72.09-144.85Z" transform="translate(-267.99 -1282.18)" style="fill:#bf8600"/><path d="M1464.11,1303.34H1372v-13.89h121.48l-91.94,123.69h91.72V1427H1372Z" transform="translate(-267.99 -1282.18)" style="fill:#bf8600"/><path d="M1278.28,1505.63c.06-.13.22-.2.45-.2a1.86,1.86,0,0,1,.72.15,5.19,5.19,0,0,1,.66.35c.2.14.27.24.2.31q-1.72,5.09-3.91,10a52.77,52.77,0,0,1-5.23,9.19,29.83,29.83,0,0,1-6.91,7.16,14.42,14.42,0,0,1-9.35,2.69q-6.2-.19-9.39-3.76a16.53,16.53,0,0,1-4-8.68,28.75,28.75,0,0,1,.56-11,36,36,0,0,1,4.47-10.87,29.37,29.37,0,0,1,7.62-8.28,16,16,0,0,1,10-3.2,5.76,5.76,0,0,1,3,.81,9.47,9.47,0,0,1,2.44,2.08,11.38,11.38,0,0,1,1.73,2.8,15.47,15.47,0,0,1,1,2.94,1.41,1.41,0,0,1-.66,1.63,4.24,4.24,0,0,1-2,.56,4.51,4.51,0,0,1-2-.36c-.61-.27-.85-.68-.71-1.22a10.12,10.12,0,0,0,.3-2.44,15.34,15.34,0,0,0-.15-2.23,6,6,0,0,0-.46-1.68q-.3-.66-.81-.66c-.68-.06-1.52.44-2.54,1.53a29.67,29.67,0,0,0-3.25,4.36,63.53,63.53,0,0,0-3.4,6.25q-1.68,3.51-3.1,7.27a58,58,0,0,0-2.28,7.41,28.82,28.82,0,0,0-.87,6.6,10,10,0,0,0,1.07,4.88,4.37,4.37,0,0,0,3.5,2.24,10.16,10.16,0,0,0,4.27-.31,15.84,15.84,0,0,0,4-1.78,21,21,0,0,0,3.46-2.69,22.43,22.43,0,0,0,2.79-3.25,53,53,0,0,0,5.08-8.94Q1276.65,1510.51,1278.28,1505.63Z" transform="translate(-267.99 -1282.18)" style="fill:#fff"/><path d="M1308.35,1440a4.61,4.61,0,0,1,2.64,2.89,12.18,12.18,0,0,1,.3,6.25,40.71,40.71,0,0,1-1.52,6.5q-1.12,3.55-2.64,7.42c-1.16,2.71-2.39,5.45-3.71,8.22s-2.66,5.44-4,8-2.68,4.86-4,7-2.4,3.82-3.35,5.18c-.2,1.08-.59,2.83-1.17,5.23s-1.2,5.11-1.88,8.13-1.32,6.14-1.93,9.39-1.1,6.25-1.47,9a53.21,53.21,0,0,0-.56,6.86c0,1.83.34,2.84,1,3a3.7,3.7,0,0,0,2.69-.46,10,10,0,0,0,2.54-2,22.87,22.87,0,0,0,2.13-2.69,21.51,21.51,0,0,0,1.48-2.44,63.51,63.51,0,0,0,4.52-9.65q1.88-5.08,3.6-10.16a.47.47,0,0,1,.46-.2,1.81,1.81,0,0,1,.71.15,4.12,4.12,0,0,1,.66.35c.2.14.31.24.31.31-1.16,3.45-2.41,6.93-3.76,10.41a75.81,75.81,0,0,1-4.68,9.91,29.34,29.34,0,0,1-1.87,3,18.08,18.08,0,0,1-2.44,2.8,13.29,13.29,0,0,1-3,2.08,7.55,7.55,0,0,1-3.5.81,7.67,7.67,0,0,1-6.35-2.69,14.64,14.64,0,0,1-2.9-7,41.11,41.11,0,0,1-.35-9.5,94.52,94.52,0,0,1,1.27-10.36c.61-3.42,1.28-6.63,2-9.65s1.39-5.43,1.93-7.26q1.21-4.36,2.95-10t3.85-11.32c1.43-3.83,2.93-7.54,4.53-11.13a67.21,67.21,0,0,1,4.92-9.29,24.62,24.62,0,0,1,5.18-6A5.37,5.37,0,0,1,1308.35,1440Zm.81,8.83a11,11,0,0,0,0-4.57,3.27,3.27,0,0,0-1.47-2.23q-1.53-.72-3.15,2a38.17,38.17,0,0,0-3.2,7.26q-1.58,4.58-3,10.16t-2.54,10.67c-.75,3.38-1.37,6.36-1.88,8.94s-.83,4.2-1,4.87c1.89-3.05,3.94-6.68,6.14-10.92s4.18-8.48,5.94-12.75c1-2.5,1.88-4.89,2.6-7.16A39.94,39.94,0,0,0,1309.16,1448.84Z" transform="translate(-267.99 -1282.18)" style="fill:#fff"/><path d="M1341.36,1505.73a.47.47,0,0,1,.46-.2,1.85,1.85,0,0,1,.71.15,3.82,3.82,0,0,1,.66.36c.2.13.27.23.2.3a27.28,27.28,0,0,1-2.28,5.13,21.54,21.54,0,0,1-3.46,4.57,12.81,12.81,0,0,1-4.47,3,9.74,9.74,0,0,1-5.53.35c-.75,1.63-1.66,3.41-2.75,5.34a31.16,31.16,0,0,1-3.81,5.38,21.23,21.23,0,0,1-4.82,4.12,9.3,9.3,0,0,1-5.59,1.42,8.67,8.67,0,0,1-6.25-2.85,15.75,15.75,0,0,1-3.45-6.7,28.47,28.47,0,0,1-.76-9,41.08,41.08,0,0,1,1.83-9.86,36.11,36.11,0,0,1,2.89-6.75,26,26,0,0,1,4.17-5.64,18.61,18.61,0,0,1,5.38-3.86,16,16,0,0,1,6.55-1.52,9.35,9.35,0,0,1,5.69,1.37,9.47,9.47,0,0,1,3.25,3.86,14.85,14.85,0,0,1,1.32,5.43,31.55,31.55,0,0,1-.2,6.2,53,53,0,0,1-1.12,6,42.75,42.75,0,0,1-1.52,5,7.31,7.31,0,0,0,4.52-.61,12.33,12.33,0,0,0,3.71-2.79,19.88,19.88,0,0,0,2.79-4A29.35,29.35,0,0,0,1341.36,1505.73Zm-15.85,12.8a6.42,6.42,0,0,1-3.45-4,9,9,0,0,1-.2-5,6.05,6.05,0,0,1,2.43-3.6q1.83-1.27,4.58,0a31,31,0,0,0,.3-5.44,16.58,16.58,0,0,0-.76-4.57,7.46,7.46,0,0,0-2-3.2,5.06,5.06,0,0,0-3.25-1.32,4,4,0,0,0-2.75,1.52,21.51,21.51,0,0,0-2.89,4.17,46,46,0,0,0-2.79,6.09q-1.34,3.46-2.44,7.11c-.14.48-.39,1.36-.77,2.65s-.76,2.74-1.16,4.36-.76,3.34-1.07,5.13a29.74,29.74,0,0,0-.46,5,12.3,12.3,0,0,0,.56,4,2.45,2.45,0,0,0,2.08,1.83,5.62,5.62,0,0,0,4.47-1.27,21.65,21.65,0,0,0,4.12-4.11,36.66,36.66,0,0,0,3.3-5.13C1324.33,1521.05,1325,1519.62,1325.51,1518.53Z" transform="translate(-267.99 -1282.18)" style="fill:#fff"/><path d="M1376.2,1471.5a.65.65,0,0,1,.61.1,1.21,1.21,0,0,1,.46.56,2.7,2.7,0,0,1,.2.71c0,.24,0,.39-.15.46a15.57,15.57,0,0,1-7.62,1.67,69.78,69.78,0,0,1-9.24-.76q-1.64,5.38-3.4,11.73t-3.46,12.8q-1.68,6.45-3,12.45t-2.13,10.77a51.1,51.1,0,0,0-.76,7.77c0,2,.41,3.09,1.22,3.3a3.7,3.7,0,0,0,2.69-.46,10.22,10.22,0,0,0,2.54-2,22.87,22.87,0,0,0,2.13-2.69,21.51,21.51,0,0,0,1.48-2.44,63.51,63.51,0,0,0,4.52-9.65q1.88-5.08,3.6-10.16a.47.47,0,0,1,.46-.2,1.81,1.81,0,0,1,.71.15,4.12,4.12,0,0,1,.66.35c.2.14.31.24.31.31q-1.74,5.17-3.76,10.36a85.5,85.5,0,0,1-4.68,10,29.34,29.34,0,0,1-1.87,3,18.08,18.08,0,0,1-2.44,2.8,13.29,13.29,0,0,1-3,2.08,8.39,8.39,0,0,1-10.06-2.23,17,17,0,0,1-2.74-8.13,52.34,52.34,0,0,1,.2-11.58q.77-6.51,2.29-13.46t3.56-13.82q2-6.85,4-12.65a60.44,60.44,0,0,0-9.25-.66A12.38,12.38,0,0,0,1333,1474a.53.53,0,0,1-.61,0,2.29,2.29,0,0,1-.56-.56,1.6,1.6,0,0,1-.3-.71.52.52,0,0,1,.25-.56,15,15,0,0,1,8.18-2.34,67.49,67.49,0,0,1,10.21.61l3.76-10.36a3.82,3.82,0,0,1,2.28-1.78,10.85,10.85,0,0,1,3.86-.81,5.09,5.09,0,0,1,3.3,1c.88.68,1.09,1.83.61,3.46l-2.94,10.26a71.38,71.38,0,0,0,8.38.66A14.52,14.52,0,0,0,1376.2,1471.5Z" transform="translate(-267.99 -1282.18)" style="fill:#fff"/><path d="M1410.23,1505.63c0-.13.12-.2.36-.2a2.18,2.18,0,0,1,.76.15,3.61,3.61,0,0,1,.71.35c.21.14.27.24.21.31q-1.74,5.17-3.71,10.36a79.11,79.11,0,0,1-4.62,10c-.61,1-1.27,2-2,3a19.51,19.51,0,0,1-2.39,2.8,11.67,11.67,0,0,1-3,2.08,7.85,7.85,0,0,1-3.55.81q-3.66,0-5.44-1.72a8.11,8.11,0,0,1-2.28-4.52,21.29,21.29,0,0,1,0-6.46,69.44,69.44,0,0,1,1.37-7.51q.91-3.87,1.93-7.72c.67-2.58,1.22-4.95,1.62-7.11.07-.48.22-1.21.46-2.19a21.46,21.46,0,0,0,.51-3,11.24,11.24,0,0,0,0-2.8,1.77,1.77,0,0,0-1.12-1.57c-.88-.21-2,.2-3.35,1.22a17.27,17.27,0,0,0-4.37,5.08,63.37,63.37,0,0,0-3.76,7.21q-1.72,3.86-3.1,7.67l-2.28,6.35-2.44,17.06h-5.18a17,17,0,0,1-3.51-.3,2.72,2.72,0,0,1-1.88-1.17,3.88,3.88,0,0,1-.2-2.59q.71-4.17,2.08-10.72t3.15-14.37q1.78-7.83,4-16.36t4.63-16.51q2.43-8,5-14.93a75,75,0,0,1,5.34-11.63,15.65,15.65,0,0,1,4.72-5.59,5.88,5.88,0,0,1,4.62-1.22,4.44,4.44,0,0,1,2.7,2.75,13.12,13.12,0,0,1,.45,6.5,49.4,49.4,0,0,1-2.74,10.26q-2.13,5.79-4.93,11.68t-5.84,11.23q-3,5.33-5.59,8.89-.81,4.26-1.47,8.33c-.44,2.7-.86,5.35-1.27,7.92q.81-2.13,2-4.83a50.46,50.46,0,0,1,2.69-5.28,30.12,30.12,0,0,1,3.41-4.72,11.43,11.43,0,0,1,4-3.05,10.11,10.11,0,0,1,4.27-.71,8.37,8.37,0,0,1,4.16,1.12,7.61,7.61,0,0,1,2.59,2.64,12.13,12.13,0,0,1,1.42,3.65,24.3,24.3,0,0,1,.56,4.27,31.82,31.82,0,0,1-.56,6.76q-.66,3.6-1.67,7.11t-2.19,6.8q-1.17,3.3-2,5.84a24,24,0,0,0-1,4.17c-.14,1.08.1,1.69.71,1.83a3.7,3.7,0,0,0,2.69-.46,10.22,10.22,0,0,0,2.54-2,22.87,22.87,0,0,0,2.13-2.69,21.51,21.51,0,0,0,1.48-2.44,66.74,66.74,0,0,0,4.57-9.65Q1408.5,1510.71,1410.23,1505.63Zm-22.65-57.7a73.3,73.3,0,0,0-2.39,7.21c-.77,2.78-1.56,5.81-2.33,9.09s-1.54,6.78-2.29,10.47-1.46,7.43-2.13,11.22q2.13-3.56,4.72-8.23t4.93-9.7a105.39,105.39,0,0,0,4.06-10,50.94,50.94,0,0,0,2.34-9.15,14.65,14.65,0,0,0,.1-5.13c-.27-1.18-.75-1.88-1.42-2.08s-1.63.32-2.64,1.37A16.25,16.25,0,0,0,1387.58,1447.93Z" transform="translate(-267.99 -1282.18)" style="fill:#fff"/><path d="M1432.79,1505.63c0-.13.11-.2.35-.2a2.18,2.18,0,0,1,.76.15,4,4,0,0,1,.72.35c.2.14.26.24.2.31q-1.72,5.17-3.71,10.36a79.11,79.11,0,0,1-4.62,10c-.61,1-1.27,2-2,3a18.89,18.89,0,0,1-2.39,2.8,11.67,11.67,0,0,1-2.95,2.08,7.85,7.85,0,0,1-3.55.81,6,6,0,0,1-5.44-2.79,16.25,16.25,0,0,1-2.23-7.06,42.41,42.41,0,0,1,.15-9.5c.41-3.49.93-6.87,1.58-10.16s1.32-6.26,2-8.94,1.23-4.65,1.57-5.94c.14-.47.9-.9,2.29-1.27a23,23,0,0,1,4.47-.71,14.7,14.7,0,0,1,4.16.25c1.19.27,1.64.75,1.37,1.43s-1,2.38-1.88,4.72-1.93,5-3,8.08-2.22,6.26-3.3,9.65a94.63,94.63,0,0,0-2.54,9.39,33.85,33.85,0,0,0-.87,7.32c0,2,.63,3.09,1.78,3.3a3.7,3.7,0,0,0,2.69-.46,10.81,10.81,0,0,0,2.59-2,17.42,17.42,0,0,0,2.14-2.69c.61-1,1.11-1.76,1.52-2.44a74.62,74.62,0,0,0,4.47-9.65C1430.42,1512.4,1431.63,1509,1432.79,1505.63Zm-11.89-18.18a5,5,0,0,1-3.81-1.73,6.09,6.09,0,0,1-1.57-4.27,6,6,0,0,1,1.57-4.16,5,5,0,0,1,3.81-1.73,5.08,5.08,0,0,1,3.91,1.73,6,6,0,0,1,1.58,4.16,6.09,6.09,0,0,1-1.58,4.27A5.08,5.08,0,0,1,1420.9,1487.45Z" transform="translate(-267.99 -1282.18)" style="fill:#fff"/><path d="M1476.77,1505.63a.47.47,0,0,1,.46-.2,1.81,1.81,0,0,1,.71.15,4.12,4.12,0,0,1,.66.35c.2.14.31.24.31.31-1.16,3.45-2.41,6.93-3.76,10.41a77.13,77.13,0,0,1-4.68,9.91,27.84,27.84,0,0,1-1.88,3,17.5,17.5,0,0,1-2.43,2.8,13.29,13.29,0,0,1-3,2.08,7.55,7.55,0,0,1-3.5.81q-4.17,0-5.9-2.38a11.57,11.57,0,0,1-2-6.1,33.54,33.54,0,0,1,.61-8.33q.87-4.62,2-9.24t2.24-8.64a31.84,31.84,0,0,0,1.17-6.65,3.66,3.66,0,0,0-.81-3c-.75-.67-2-.37-3.86.92a17.67,17.67,0,0,0-4.42,5.13,61.27,61.27,0,0,0-3.81,7.31q-1.74,3.92-3.1,7.77c-.92,2.58-1.68,4.74-2.29,6.5-.47,2.78-.95,5.54-1.42,8.28s-.91,5.54-1.32,8.38h-5.18a17,17,0,0,1-3.51-.3,2.67,2.67,0,0,1-1.87-1.17,3.87,3.87,0,0,1-.21-2.59q.62-3,1.63-7.52t2.33-9.8q1.32-5.34,2.85-11.38t3.15-12.24c.06-.41.59-.76,1.57-1.07a10.57,10.57,0,0,1,3.1-.45,8.7,8.7,0,0,1,2.9.45c.84.31,1.2.83,1.06,1.58l-2.84,15.64c.54-1.35,1.2-2.88,2-4.57s1.64-3.35,2.59-5a26.87,26.87,0,0,1,3.2-4.42,11.41,11.41,0,0,1,3.81-2.89,9.8,9.8,0,0,1,4.16-.71,8.42,8.42,0,0,1,4.68,1.32,9.2,9.2,0,0,1,3.81,6,26.86,26.86,0,0,1,.15,8.54,66.74,66.74,0,0,1-2,9.6q-1.42,4.92-2.75,9t-2,6.75c-.44,1.8-.32,2.79.36,3a3.7,3.7,0,0,0,2.69-.46,10.22,10.22,0,0,0,2.54-2,22.87,22.87,0,0,0,2.13-2.69,21.51,21.51,0,0,0,1.48-2.44,63.51,63.51,0,0,0,4.52-9.65Q1475,1510.71,1476.77,1505.63Z" transform="translate(-267.99 -1282.18)" style="fill:#fff"/><path d="M1522,1505.71c.06-.13.22-.2.46-.2a1.85,1.85,0,0,1,.71.15,4.22,4.22,0,0,1,.66.36c.2.14.27.24.2.3a53.24,53.24,0,0,1-19.1,26.08q-.81,3.45-2.18,8.78t-3.35,11.27c-1.33,4-2.83,7.91-4.53,11.87A58.55,58.55,0,0,1,1489,1575a30.94,30.94,0,0,1-7.26,7.56,13.39,13.39,0,0,1-8.63,2.64,8.22,8.22,0,0,1-6-2.34,12,12,0,0,1-2.94-5.33,20.9,20.9,0,0,1-.61-6.65,29.19,29.19,0,0,1,1-6.4,32.52,32.52,0,0,1,5-10.62,35.7,35.7,0,0,1,7.21-7.26,62.75,62.75,0,0,1,8.89-5.54q4.83-2.49,10-5.33.81-5.09,1.57-10.06c.51-3.31,1-6.57,1.47-9.75a94.76,94.76,0,0,1-5.07,11c-.48.81-1,1.71-1.63,2.69a16.59,16.59,0,0,1-2.13,2.75,13.86,13.86,0,0,1-2.64,2.13,5.75,5.75,0,0,1-3,.86,8.16,8.16,0,0,1-5.59-2,12.46,12.46,0,0,1-3.4-5.22,25.09,25.09,0,0,1-1.37-7.35,34.48,34.48,0,0,1,.61-8.36,38,38,0,0,1,2.64-8.37,29.68,29.68,0,0,1,4.57-7.29,22.29,22.29,0,0,1,6.4-5.17,17,17,0,0,1,8.23-2,7,7,0,0,1,3.65,1,9.93,9.93,0,0,1,2.75,2.39,17.78,17.78,0,0,1,.5-1.83c.14-.47.85-.91,2.14-1.32a18,18,0,0,1,4.16-.76,11.72,11.72,0,0,1,3.91.31c1.12.3,1.54.86,1.27,1.67-.61,1.83-1.23,4.11-1.88,6.85s-1.33,5.75-2.08,9-1.52,6.82-2.33,10.61-1.7,7.64-2.65,11.56A50.5,50.5,0,0,0,1522,1505.71ZM1473.22,1583a7.47,7.47,0,0,0,5.53-2.44,29,29,0,0,0,4.88-6.6,68.55,68.55,0,0,0,4.22-9.15q1.92-5.07,3.4-10.1c1-3.36,1.79-6.47,2.44-9.35s1.13-5.2,1.47-7l-9.19,4.88a56,56,0,0,0-8.18,5.23,32.81,32.81,0,0,0-6.6,6.81,30,30,0,0,0-4.47,9.7,27.12,27.12,0,0,0-.87,5.18,19.89,19.89,0,0,0,.36,5.89,11.17,11.17,0,0,0,2.23,4.83A6.12,6.12,0,0,0,1473.22,1583Zm27.12-77.71q.71-4.68,1.52-8.64a7.74,7.74,0,0,0-1.47-3.4,3.49,3.49,0,0,0-2.89-1.58,4.14,4.14,0,0,0-2.85,1.73,25.57,25.57,0,0,0-3.1,4.62,60.05,60.05,0,0,0-3,6.61c-1,2.47-1.9,5-2.75,7.61s-1.56,5.15-2.13,7.62a62.81,62.81,0,0,0-1.22,6.66,15.68,15.68,0,0,0,0,4.77c.24,1.22.73,1.86,1.47,1.93a3.76,3.76,0,0,0,2.44-.71,11.67,11.67,0,0,0,2.29-2,21.4,21.4,0,0,0,1.88-2.49c.54-.85,1-1.57,1.32-2.18a78.29,78.29,0,0,0,4.37-9.35Q1498.31,1511.12,1500.34,1505.33Z" transform="translate(-267.99 -1282.18)" style="fill:#fff"/><path d="M1549.4,1506q-2.33,6.6-5.48,9.8a18,18,0,0,1-6.4,4.42,27.61,27.61,0,0,1,.46,2.89,12.2,12.2,0,0,1,0,2.9,9.91,9.91,0,0,1-1.22,4,10.72,10.72,0,0,1-2.59,3,13.3,13.3,0,0,1-3.51,2,12,12,0,0,1-3.86.86,10.47,10.47,0,0,1-5.13-.76,7.85,7.85,0,0,1-3.25-2.64,7.38,7.38,0,0,1-1.32-3.76,8.35,8.35,0,0,1,.66-4,8.77,8.77,0,0,1,2.64-3.35,9.44,9.44,0,0,1,4.67-1.88,9.19,9.19,0,0,1,1-.15,7.33,7.33,0,0,1,1,0q-1.21-3.06-2.69-6a46.59,46.59,0,0,1-2.54-6,29.56,29.56,0,0,1-1.42-6.45,22.11,22.11,0,0,1,.56-7.32,15.27,15.27,0,0,1,4.57-8.22,15.57,15.57,0,0,1,8.64-3.86q4.26-.51,6.8,1.42a8.75,8.75,0,0,1,3.3,4.92,11.54,11.54,0,0,1-.35,6.46,13.59,13.59,0,0,1-4.17,6.09,1.35,1.35,0,0,1-1,.36,1,1,0,0,1-.71-.36,1.06,1.06,0,0,1-.21-.81,1.66,1.66,0,0,1,.66-1,11.1,11.1,0,0,0,2.85-4.32,11.84,11.84,0,0,0,.81-4.67,6.9,6.9,0,0,0-1.22-3.76,3.62,3.62,0,0,0-3.15-1.57,6,6,0,0,0-3.81,1.22,8.72,8.72,0,0,0-2.49,3.05,13.9,13.9,0,0,0-1.27,3.91,14.48,14.48,0,0,0-.15,3.91,24.56,24.56,0,0,0,1.07,5.69c.57,1.82,1.22,3.64,1.93,5.43s1.44,3.56,2.18,5.28A39.54,39.54,0,0,1,1537,1518a15.35,15.35,0,0,0,5.64-4,24.19,24.19,0,0,0,4.72-8.73ZM1525,1533.87a4.53,4.53,0,0,0,3.36-1.47c.94-1,1.25-2.63.91-4.93a21.1,21.1,0,0,0-.61-3c-.27-.94-.57-1.89-.91-2.84h-1.07a5.32,5.32,0,0,0-1.07.1,7.06,7.06,0,0,0-4.92,2.39,6.37,6.37,0,0,0-1.53,4.16,6,6,0,0,0,1.58,3.91A5.35,5.35,0,0,0,1525,1533.87Z" transform="translate(-267.99 -1282.18)" style="fill:#fff"/><path d="M1562.51,1525.54a5.85,5.85,0,0,1,1.22,4.37,6,6,0,0,1-.61,2.23,7,7,0,0,1-1.32,1.83,5,5,0,0,1-4.07,1.42,5.09,5.09,0,0,1-3.65-2.13,5.86,5.86,0,0,1-1.22-4.37,5.79,5.79,0,0,1,2-4,4.52,4.52,0,0,1,4-1.42,4.68,4.68,0,0,1,2,.66A7.11,7.11,0,0,1,1562.51,1525.54Z" transform="translate(-267.99 -1282.18)" style="fill:#fff"/></svg>