<svg id="afd9a0a1-1bef-4fdd-b955-aa192700ecb6" data-name="Layer 1" xmlns="http://www.w3.org/2000/svg" viewBox="0 0 1392.71 367.47"><title>logo2</title><path d="M268,1358.24a67.13,67.13,0,0,1,5.51-27,69.58,69.58,0,0,1,37-36.93,70.58,70.58,0,0,1,47.63-2.53,66.56,66.56,0,0,1,17.86,8.48,75.5,75.5,0,0,1,14.66,13,72,72,0,0,1,10.69,16.32L389,1337.52a58.69,58.69,0,0,0-8.49-13.45,61.19,61.19,0,0,0-11.8-10.81,54.25,54.25,0,0,0-14.44-7.16,52.9,52.9,0,0,0-37.59,2,58.17,58.17,0,0,0-17.64,12,56.91,56.91,0,0,0-11.91,17.53,51.24,51.24,0,0,0-4.41,20.83,50.26,50.26,0,0,0,4.41,20.84,57.74,57.74,0,0,0,11.91,17.31,56.77,56.77,0,0,0,17.53,11.9,52.09,52.09,0,0,0,21.27,4.41,53.81,53.81,0,0,0,15-2.09,57,57,0,0,0,13.56-5.85,57.9,57.9,0,0,0,11.46-8.93,51.44,51.44,0,0,0,8.71-11.57l10.58,10.8a70.94,70.94,0,0,1-24.58,23.48q-15.33,8.94-34.73,8.93a68.26,68.26,0,0,1-27.34-5.51,69.58,69.58,0,0,1-37-36.93A67.06,67.06,0,0,1,268,1358.24Zm128.54-3.08v13.89H330.61v-13.89Z" transform="translate(-267.99 -1282.18)" style="fill:#bf8600"/><path d="M494.21,1355.16h21.16a16.26,16.26,0,0,0,9-2.43,21.87,21.87,0,0,0,6.29-6.17,25.62,25.62,0,0,0,3.64-8.16,34.8,34.8,0,0,0,1.1-8.38,31.43,31.43,0,0,0-1.44-9.15,30.83,30.83,0,0,0-4.07-8.6,23.56,23.56,0,0,0-6.51-6.39,15.52,15.52,0,0,0-8.71-2.54H445.92V1427H430.49V1289.45h87.09a28,28,0,0,1,13,3.2,35.92,35.92,0,0,1,10.8,8.6,41.67,41.67,0,0,1,7.39,12.9,46.4,46.4,0,0,1,2.75,16.09,40.88,40.88,0,0,1-2.64,14.66,43.06,43.06,0,0,1-7.17,12.35,34.94,34.94,0,0,1-10.58,8.6,27.33,27.33,0,0,1-12.9,3.2l29.32,58H531Z" transform="translate(-267.99 -1282.18)" style="fill:#bf8600"/><path d="M580.64,1427V1289.45H685.37v13.89h-89.3v109.8h89.3V1427Zm103-71.87v13.89H617.68v-13.89Z" transform="translate(-267.99 -1282.18)" style="fill:#bf8600"/><path d="M854.92,1427h-17.2l-55.56-111.78-47.85,97.89h64.82l9.49,13.89H710.06l72.1-144.85Z" transform="translate(-267.99 -1282.18)" style="fill:#bf8600"/><path d="M966,1289.45v13.89H913.57V1427H898.13V1303.34H845.88v-13.89Z" transform="translate(-267.99 -1282.18)" style="fill:#bf8600"/><path d="M1074.29,1427V1289.45h15.44v123.69H1179V1427Z" transform="translate(-267.99 -1282.18)" style="fill:#bf8600"/><path d="M1347.91,1427h-17.19l-55.57-111.78-47.84,97.89h64.82l9.48,13.89h-98.55l72.09-144.85Z" transform="translate(-267.99 -1282.18)" style="fill:#bf8600"/><path d="M1464.11,1303.34H1372v-13.89h121.48l-91.94,123.69h91.72V1427H1372Z" transform="translate(-267.99 -1282.18)" style="fill:#bf8600"/><path d="M1248.67,1534.84q.13-.3.66-.3a2.68,2.68,0,0,1,1,.22,5.87,5.87,0,0,1,1,.52c.29.19.39.34.29.44q-2.49,7.33-5.64,14.44a76,76,0,0,1-7.55,13.27,42.84,42.84,0,0,1-10,10.33,20.87,20.87,0,0,1-13.49,3.89q-8.94-.3-13.56-5.43a23.84,23.84,0,0,1-5.79-12.53,41.18,41.18,0,0,1,.8-15.91,51.65,51.65,0,0,1,6.45-15.69,42.43,42.43,0,0,1,11-11.95,23.18,23.18,0,0,1,14.44-4.61,8.34,8.34,0,0,1,4.32,1.17,13.41,13.41,0,0,1,3.52,3,16.27,16.27,0,0,1,2.5,4A23.36,23.36,0,0,1,1240,1524a2,2,0,0,1-1,2.34,6.07,6.07,0,0,1-2.85.81,6.43,6.43,0,0,1-2.94-.51c-.88-.39-1.22-1-1-1.76a14.63,14.63,0,0,0,.44-3.52,22.89,22.89,0,0,0-.22-3.23,9.23,9.23,0,0,0-.66-2.41c-.3-.64-.69-1-1.18-1q-1.45-.13-3.66,2.2a42.52,42.52,0,0,0-4.69,6.3,89.36,89.36,0,0,0-4.91,9q-2.43,5.06-4.47,10.48a86.1,86.1,0,0,0-3.3,10.71,41.84,41.84,0,0,0-1.25,9.53,14.35,14.35,0,0,0,1.54,7,6.28,6.28,0,0,0,5.06,3.23,14.82,14.82,0,0,0,6.16-.44,22.75,22.75,0,0,0,5.79-2.57,30.26,30.26,0,0,0,5-3.88,32.81,32.81,0,0,0,4-4.69,75.28,75.28,0,0,0,7.33-12.91Q1246.33,1541.88,1248.67,1534.84Z" transform="translate(-267.99 -1282.18)" style="fill:#bf8600"/><path d="M1292.06,1440.13a6.7,6.7,0,0,1,3.82,4.18c.87,2.2,1,5.2.43,9a58.33,58.33,0,0,1-2.19,9.39q-1.62,5.13-3.82,10.7-2.49,5.86-5.35,11.87t-5.79,11.51q-2.92,5.51-5.72,10c-1.85,3-3.47,5.53-4.83,7.48-.3,1.57-.86,4.08-1.69,7.55s-1.74,7.38-2.71,11.73-1.91,8.87-2.79,13.56-1.59,9-2.12,13a75.4,75.4,0,0,0-.81,9.89c0,2.64.49,4.11,1.47,4.4a5.36,5.36,0,0,0,3.88-.66,14.74,14.74,0,0,0,3.67-2.93,32.8,32.8,0,0,0,3.07-3.89,32,32,0,0,0,2.13-3.51,90.91,90.91,0,0,0,6.52-13.93q2.71-7.34,5.21-14.66c.1-.2.31-.3.66-.3a2.77,2.77,0,0,1,1,.22,5.77,5.77,0,0,1,.95.52c.29.19.44.34.44.44q-2.51,7.47-5.43,15a109.18,109.18,0,0,1-6.74,14.3,44.73,44.73,0,0,1-2.71,4.4,25.43,25.43,0,0,1-3.52,4,19.32,19.32,0,0,1-4.25,3,10.78,10.78,0,0,1-5.06,1.18q-6,0-9.16-3.89a21,21,0,0,1-4.18-10A59,59,0,0,1,1246,1550a138.05,138.05,0,0,1,1.83-15q1.32-7.41,2.93-13.93t2.78-10.48q1.77-6.3,4.26-14.37t5.57-16.35q3.08-8.28,6.52-16a97.9,97.9,0,0,1,7.11-13.42,35.45,35.45,0,0,1,7.48-8.64Q1288.25,1438.8,1292.06,1440.13Zm1.18,12.75a15.87,15.87,0,0,0,.07-6.59,4.69,4.69,0,0,0-2.13-3.23c-1.46-.68-3,.27-4.54,2.86a55.21,55.21,0,0,0-4.62,10.48q-2.28,6.6-4.32,14.66t-3.67,15.4q-1.62,7.33-2.71,12.9c-.74,3.71-1.2,6.06-1.4,7q4.11-6.6,8.87-15.77t8.58-18.39q2.2-5.43,3.74-10.34A58.2,58.2,0,0,0,1293.24,1452.88Z" transform="translate(-267.99 -1282.18)" style="fill:#bf8600"/><path d="M1339.71,1535c.09-.19.31-.29.66-.29a2.5,2.5,0,0,1,1,.22,7.29,7.29,0,0,1,1,.51c.29.2.39.35.29.44a38.94,38.94,0,0,1-3.3,7.41,30.92,30.92,0,0,1-5,6.59,18.6,18.6,0,0,1-6.45,4.26,14,14,0,0,1-8,.51q-1.62,3.51-4,7.7a46.44,46.44,0,0,1-5.5,7.77,30.55,30.55,0,0,1-7,5.93,13.34,13.34,0,0,1-8.07,2.06,12.53,12.53,0,0,1-9-4.11,22.75,22.75,0,0,1-5-9.67,41.63,41.63,0,0,1-1.1-13A59.88,59.88,0,0,1,1283,1537a52.74,52.74,0,0,1,4.18-9.75,37.73,37.73,0,0,1,6-8.14,27.07,27.07,0,0,1,7.77-5.57,23.34,23.34,0,0,1,9.46-2.2,13.48,13.48,0,0,1,8.21,2,13.75,13.75,0,0,1,4.69,5.57,21.77,21.77,0,0,1,1.9,7.84,45.66,45.66,0,0,1-.29,9,79.77,79.77,0,0,1-1.61,8.72,64.18,64.18,0,0,1-2.2,7.26,10.54,10.54,0,0,0,6.52-.88,17.8,17.8,0,0,0,5.35-4,28.08,28.08,0,0,0,4-5.72A44.1,44.1,0,0,0,1339.71,1535Zm-22.87,18.48a9.26,9.26,0,0,1-5-5.72,13,13,0,0,1-.29-7.19,8.82,8.82,0,0,1,3.52-5.2q2.64-1.83,6.59.07a43.26,43.26,0,0,0,.44-7.84,23.45,23.45,0,0,0-1.1-6.6,10.71,10.71,0,0,0-2.85-4.61,7.26,7.26,0,0,0-4.7-1.91q-1.9,0-4,2.2a30.44,30.44,0,0,0-4.18,6,67.46,67.46,0,0,0-4,8.79q-1.9,5-3.52,10.27c-.2.68-.57,2-1.1,3.81s-1.1,4-1.69,6.3-1.1,4.82-1.54,7.41a43.47,43.47,0,0,0-.66,7.25,17.63,17.63,0,0,0,.81,5.72,3.54,3.54,0,0,0,3,2.64,8.14,8.14,0,0,0,6.45-1.83,31.17,31.17,0,0,0,5.93-5.94,51.23,51.23,0,0,0,4.77-7.4C1315.13,1557.1,1316.15,1555,1316.84,1553.46Z" transform="translate(-267.99 -1282.18)" style="fill:#bf8600"/><path d="M1390,1485.58a1,1,0,0,1,.88.14,1.75,1.75,0,0,1,.66.81,3.9,3.9,0,0,1,.3,1c.05.34,0,.56-.22.66a22.45,22.45,0,0,1-11,2.41,99.88,99.88,0,0,1-13.34-1.09q-2.34,7.77-4.91,16.93t-5,18.47q-2.41,9.32-4.39,18t-3.08,15.54a73.45,73.45,0,0,0-1.1,11.22c0,2.88.58,4.47,1.76,4.76a5.36,5.36,0,0,0,3.88-.66,14.74,14.74,0,0,0,3.67-2.93,33.94,33.94,0,0,0,3.08-3.89,33.36,33.36,0,0,0,2.12-3.51,91,91,0,0,0,6.53-13.93q2.7-7.34,5.2-14.66a.67.67,0,0,1,.66-.3,2.77,2.77,0,0,1,1,.22,5.77,5.77,0,0,1,1,.52c.29.19.44.34.44.44q-2.49,7.47-5.43,15A119.41,119.41,0,0,1,1366,1565a44.73,44.73,0,0,1-2.71,4.4,25.43,25.43,0,0,1-3.52,4,19.32,19.32,0,0,1-4.25,3,10.78,10.78,0,0,1-5.06,1.18q-6.3,0-9.46-4.4t-4-11.73a74.66,74.66,0,0,1,.29-16.71q1.1-9.39,3.3-19.43t5.13-19.94q2.92-9.9,5.72-18.25a86,86,0,0,0-13.34-1,17.86,17.86,0,0,0-10.41,3,.72.72,0,0,1-.88,0,3.07,3.07,0,0,1-.81-.8,2.47,2.47,0,0,1-.44-1,.77.77,0,0,1,.37-.81,21.74,21.74,0,0,1,11.8-3.37,98.61,98.61,0,0,1,14.73.88l5.43-14.95c.39-1,1.49-1.84,3.3-2.57a15.82,15.82,0,0,1,5.57-1.17,7.29,7.29,0,0,1,4.76,1.39q1.9,1.47.88,5l-4.25,14.8a98.91,98.91,0,0,0,12.1,1A20.86,20.86,0,0,0,1390,1485.58Z" transform="translate(-267.99 -1282.18)" style="fill:#bf8600"/><path d="M1439.11,1534.84q0-.3.51-.3a3.31,3.31,0,0,1,1.1.22,5.22,5.22,0,0,1,1,.52c.29.19.38.34.29.44q-2.49,7.47-5.35,15A113.22,113.22,0,0,1,1430,1565c-.88,1.46-1.84,2.93-2.86,4.4a27.79,27.79,0,0,1-3.45,4,17.23,17.23,0,0,1-4.25,3,11.19,11.19,0,0,1-5.13,1.18q-5.28,0-7.84-2.5a11.73,11.73,0,0,1-3.3-6.52,30.88,30.88,0,0,1-.08-9.31,102.19,102.19,0,0,1,2-10.85q1.32-5.57,2.79-11.14t2.34-10.26q.15-1,.66-3.15a31.33,31.33,0,0,0,.74-4.33,15.74,15.74,0,0,0-.08-4,2.53,2.53,0,0,0-1.61-2.27c-1.27-.3-2.88.29-4.84,1.75a25.17,25.17,0,0,0-6.3,7.34,92.44,92.44,0,0,0-5.42,10.41q-2.5,5.57-4.48,11.06l-3.3,9.17-3.51,24.63h-7.48a24.22,24.22,0,0,1-5.06-.44,4,4,0,0,1-2.71-1.69,5.54,5.54,0,0,1-.29-3.74q1-6,3-15.46t4.55-20.75q2.55-11.29,5.71-23.6t6.67-23.83q3.52-11.51,7.26-21.55a107.93,107.93,0,0,1,7.7-16.79,22.5,22.5,0,0,1,6.82-8.06q3.74-2.49,6.67-1.76,2.49.74,3.88,4t.66,9.38a70.72,70.72,0,0,1-4,14.81q-3.07,8.36-7.11,16.86t-8.43,16.2q-4.39,7.69-8.06,12.83-1.17,6.15-2.13,12t-1.83,11.44q1.17-3.09,2.86-7a70,70,0,0,1,3.88-7.62,44.3,44.3,0,0,1,4.92-6.82,16.35,16.35,0,0,1,5.79-4.4,14.55,14.55,0,0,1,6.15-1,12.15,12.15,0,0,1,6,1.61,11.23,11.23,0,0,1,3.73,3.81,18.11,18.11,0,0,1,2.06,5.28,35.62,35.62,0,0,1,.8,6.16,46.19,46.19,0,0,1-.8,9.75q-1,5.21-2.42,10.26t-3.15,9.82q-1.69,4.77-2.86,8.43a33.92,33.92,0,0,0-1.47,6c-.2,1.57.15,2.45,1,2.64a5.36,5.36,0,0,0,3.88-.66,14.74,14.74,0,0,0,3.67-2.93,33.94,33.94,0,0,0,3.08-3.89,33.36,33.36,0,0,0,2.12-3.51,96.23,96.23,0,0,0,6.6-13.93Q1436.61,1542.17,1439.11,1534.84Zm-32.7-83.28A105,105,0,0,0,1403,1462q-1.7,6-3.37,13.12t-3.3,15.11q-1.62,8-3.08,16.2,3.08-5.13,6.82-11.88t7.11-14q3.36-7.26,5.86-14.44a72.42,72.42,0,0,0,3.37-13.2,21.15,21.15,0,0,0,.15-7.4c-.39-1.71-1.08-2.71-2-3s-2.35.47-3.81,2A23.67,23.67,0,0,0,1406.41,1451.56Z" transform="translate(-267.99 -1282.18)" style="fill:#bf8600"/><path d="M1471.65,1534.84c0-.2.17-.3.52-.3a3.35,3.35,0,0,1,1.1.22,4.86,4.86,0,0,1,1,.52c.3.19.39.34.3.44q-2.5,7.47-5.36,15a111.85,111.85,0,0,1-6.67,14.37q-1.32,2.19-2.85,4.4a27.79,27.79,0,0,1-3.45,4,17.23,17.23,0,0,1-4.25,3,11.25,11.25,0,0,1-5.13,1.18,8.68,8.68,0,0,1-7.85-4,23.47,23.47,0,0,1-3.22-10.19,61.77,61.77,0,0,1,.22-13.71q.87-7.54,2.27-14.66t2.93-12.9c1-3.86,1.78-6.72,2.27-8.58q.3-1,3.3-1.83a33.19,33.19,0,0,1,6.45-1,21,21,0,0,1,6,.37c1.71.39,2.37,1.07,2,2.05q-.73,1.75-2.71,6.82t-4.4,11.65q-2.42,6.6-4.76,13.93a138.93,138.93,0,0,0-3.67,13.56,48.28,48.28,0,0,0-1.24,10.56q.07,4.32,2.56,4.76a5.38,5.38,0,0,0,3.89-.66,16,16,0,0,0,3.74-2.93,25.66,25.66,0,0,0,3.08-3.89c.88-1.36,1.61-2.54,2.19-3.51a106.14,106.14,0,0,0,6.46-13.93Q1469.16,1542.17,1471.65,1534.84Zm-17.15-26.25a7.15,7.15,0,0,1-5.5-2.49,8.81,8.81,0,0,1-2.27-6.16,8.65,8.65,0,0,1,2.27-6,7.19,7.19,0,0,1,5.5-2.49,7.31,7.31,0,0,1,5.64,2.49,8.61,8.61,0,0,1,2.28,6,8.78,8.78,0,0,1-2.28,6.16A7.28,7.28,0,0,1,1454.5,1508.59Z" transform="translate(-267.99 -1282.18)" style="fill:#bf8600"/><path d="M1535.13,1534.84a.67.67,0,0,1,.66-.3,2.73,2.73,0,0,1,1,.22,5.77,5.77,0,0,1,1,.52c.3.19.44.34.44.44q-2.49,7.47-5.42,15A110.52,110.52,0,0,1,1526,1565a42.89,42.89,0,0,1-2.71,4.4,24.94,24.94,0,0,1-3.52,4,19.08,19.08,0,0,1-4.25,3,10.78,10.78,0,0,1-5.06,1.18c-4,0-6.84-1.15-8.5-3.45a16.6,16.6,0,0,1-2.86-8.79,48.37,48.37,0,0,1,.88-12q1.24-6.66,2.93-13.34t3.23-12.46a44.89,44.89,0,0,0,1.68-9.6c.1-2.06-.29-3.47-1.17-4.25q-1.61-1.47-5.57,1.31a26.06,26.06,0,0,0-6.38,7.41,89.4,89.4,0,0,0-5.49,10.55q-2.51,5.65-4.48,11.22t-3.29,9.38q-1,6-2.06,12t-1.9,12.1H1470a24.22,24.22,0,0,1-5.06-.44,4,4,0,0,1-2.71-1.69,5.54,5.54,0,0,1-.29-3.74c.58-2.93,1.37-6.54,2.34-10.85s2.1-9,3.37-14.14,2.64-10.61,4.11-16.42,3-11.71,4.54-17.67c.1-.59.86-1.1,2.28-1.54a14.92,14.92,0,0,1,4.47-.66,12.35,12.35,0,0,1,4.18.66c1.22.44,1.73,1.2,1.54,2.27L1484.7,1536q1.17-2.92,2.86-6.6t3.74-7.18a38.86,38.86,0,0,1,4.62-6.38,16.73,16.73,0,0,1,5.49-4.18,14.2,14.2,0,0,1,6-1,12.13,12.13,0,0,1,6.75,1.9,13.32,13.32,0,0,1,5.5,8.65,38.4,38.4,0,0,1,.22,12.32,94.06,94.06,0,0,1-2.94,13.85q-2.06,7.11-4,13t-2.86,9.75q-1,3.89.51,4.32a5.38,5.38,0,0,0,3.89-.66,14.7,14.7,0,0,0,3.66-2.93,33.94,33.94,0,0,0,3.08-3.89,32,32,0,0,0,2.13-3.51,90.91,90.91,0,0,0,6.52-13.93Q1532.65,1542.17,1535.13,1534.84Z" transform="translate(-267.99 -1282.18)" style="fill:#bf8600"/><path d="M1600.37,1535c.1-.2.32-.29.66-.29a2.58,2.58,0,0,1,1,.22,5.08,5.08,0,0,1,1,.51c.29.2.39.34.29.44a76.75,76.75,0,0,1-27.56,37.63q-1.17,5-3.15,12.68t-4.84,16.25q-2.85,8.56-6.52,17.14a86,86,0,0,1-8.43,15.37,44.9,44.9,0,0,1-10.48,10.91,19.39,19.39,0,0,1-12.47,3.81q-5.56-.15-8.64-3.37a17.34,17.34,0,0,1-4.26-7.7,31,31,0,0,1-.88-9.6,43,43,0,0,1,1.47-9.24,47.27,47.27,0,0,1,7.18-15.32,51.71,51.71,0,0,1,10.41-10.48,90.33,90.33,0,0,1,12.83-8q7-3.6,14.44-7.7,1.17-7.32,2.27-14.51t2.13-14.08a136.87,136.87,0,0,1-7.33,15.84c-.69,1.17-1.47,2.47-2.35,3.88a23.4,23.4,0,0,1-3.08,4,18.73,18.73,0,0,1-3.81,3.08,8.34,8.34,0,0,1-4.4,1.25,11.69,11.69,0,0,1-8.06-2.86,18,18,0,0,1-4.91-7.53,36.8,36.8,0,0,1-2-10.6,51.17,51.17,0,0,1,.88-12.07,54.69,54.69,0,0,1,3.81-12.07,42.66,42.66,0,0,1,6.6-10.53,32.23,32.23,0,0,1,9.24-7.46,24.43,24.43,0,0,1,11.87-2.86,10.12,10.12,0,0,1,5.28,1.4,14.13,14.13,0,0,1,4,3.44,26,26,0,0,1,.73-2.64c.2-.68,1.22-1.32,3.08-1.9a25.13,25.13,0,0,1,6-1.1,17,17,0,0,1,5.64.44c1.62.44,2.23,1.24,1.84,2.41q-1.32,4-2.71,9.89t-3,13q-1.62,7.11-3.37,15.31t-3.81,16.69A72.91,72.91,0,0,0,1600.37,1535ZM1530,1646.55q4.26.15,8-3.52a42.32,42.32,0,0,0,7-9.53,97.78,97.78,0,0,0,6.08-13.19q2.79-7.33,4.91-14.59t3.52-13.49q1.39-6.23,2.13-10l-13.27,7a81.92,81.92,0,0,0-11.8,7.55,47.75,47.75,0,0,0-9.53,9.82,43.51,43.51,0,0,0-6.45,14,39.88,39.88,0,0,0-1.25,7.48,28.93,28.93,0,0,0,.52,8.5,16.09,16.09,0,0,0,3.22,7A8.82,8.82,0,0,0,1530,1646.55Zm39.15-112.15q1-6.75,2.19-12.46a11.32,11.32,0,0,0-2.12-4.92,5.06,5.06,0,0,0-4.18-2.27q-1.9,0-4.1,2.49a36.85,36.85,0,0,0-4.48,6.68,87.64,87.64,0,0,0-4.39,9.52q-2.13,5.36-4,11t-3.08,11a90.35,90.35,0,0,0-1.76,9.6,23.09,23.09,0,0,0,0,6.89c.34,1.76,1,2.69,2.13,2.78a5.42,5.42,0,0,0,3.51-1,16.38,16.38,0,0,0,3.3-2.93,29.48,29.48,0,0,0,2.71-3.6c.79-1.22,1.42-2.27,1.91-3.15a109.26,109.26,0,0,0,6.3-13.49Q1566.22,1542.75,1569.15,1534.4Z" transform="translate(-267.99 -1282.18)" style="fill:#bf8600"/><path d="M1640,1535.42q-3.36,9.54-7.91,14.15a26,26,0,0,1-9.24,6.38,40.89,40.89,0,0,1,.66,4.18,17.17,17.17,0,0,1-.07,4.18,14.27,14.27,0,0,1-1.76,5.79,15.51,15.51,0,0,1-3.74,4.39,19.31,19.31,0,0,1-5.06,2.94,17.76,17.76,0,0,1-5.57,1.24,15,15,0,0,1-7.4-1.1,11.36,11.36,0,0,1-4.69-3.81,10.64,10.64,0,0,1-1.91-5.42,12,12,0,0,1,1-5.72,12.88,12.88,0,0,1,3.81-4.84,13.65,13.65,0,0,1,6.75-2.71c.49-.1,1-.17,1.39-.22a12.31,12.31,0,0,1,1.39-.07q-1.75-4.41-3.88-8.58a68,68,0,0,1-3.67-8.65,42.46,42.46,0,0,1-2-9.31,32.07,32.07,0,0,1,.81-10.56,22,22,0,0,1,6.59-11.87,22.54,22.54,0,0,1,12.47-5.57q6.15-.73,9.82,2a12.64,12.64,0,0,1,4.76,7.11,16.55,16.55,0,0,1-.51,9.31,19.59,19.59,0,0,1-6,8.8,1.9,1.9,0,0,1-1.39.51,1.5,1.5,0,0,1-1-.51,1.56,1.56,0,0,1-.29-1.18,2.31,2.31,0,0,1,.95-1.46,16.16,16.16,0,0,0,4.11-6.23,17.21,17.21,0,0,0,1.17-6.75,10,10,0,0,0-1.76-5.42,5.27,5.27,0,0,0-4.55-2.27,8.64,8.64,0,0,0-5.49,1.76,12.53,12.53,0,0,0-3.6,4.39,20.44,20.44,0,0,0-1.83,5.65,20.1,20.1,0,0,0-.22,5.64,35.57,35.57,0,0,0,1.54,8.21q1.24,4,2.79,7.85t3.15,7.62a60.37,60.37,0,0,1,2.64,7.4,22.31,22.31,0,0,0,8.14-5.71q3.87-4.11,6.81-12.61Zm-35.18,40.17a6.51,6.51,0,0,0,4.84-2.12q2-2.13,1.32-7.11a30,30,0,0,0-.88-4.4q-.6-2.06-1.32-4.11h-1.54a8.47,8.47,0,0,0-1.54.15q-4.85.59-7.11,3.45a9.12,9.12,0,0,0-2.2,6,8.59,8.59,0,0,0,2.27,5.64A7.79,7.79,0,0,0,1604.77,1575.59Z" transform="translate(-267.99 -1282.18)" style="fill:#bf8600"/><path d="M1658.87,1563.57a8.44,8.44,0,0,1,1.76,6.31,8.93,8.93,0,0,1-.88,3.22,10.12,10.12,0,0,1-1.91,2.64,7.28,7.28,0,0,1-5.86,2,7.39,7.39,0,0,1-5.28-3.08,8.47,8.47,0,0,1-1.76-6.3,8.37,8.37,0,0,1,2.93-5.72,6.52,6.52,0,0,1,5.72-2,6.85,6.85,0,0,1,2.93.95A10.34,10.34,0,0,1,1658.87,1563.57Z" transform="translate(-267.99 -1282.18)" style="fill:#bf8600"/></svg>